<svg width="118" height="24" viewBox="0 0 118 24" fill="none" xmlns="http://www.w3.org/2000/svg">
<path d="M11.4841 13.61C7.57914 16.5036 0.91881 14.0396 0.91881 9.02582C0.91881 7.50671 1.40719 6.2747 2.21114 5.32978H1.6938C0.746016 5.32978 0 4.642 0 3.81067C0 2.97935 0.746016 2.26368 1.6938 2.26368H5.48389V1.34664C5.48389 0.602065 6.2299 0 7.14871 0C8.06752 0 8.81354 0.602065 8.81354 1.34664V2.26368H12.8044C13.7521 2.26368 14.4982 2.95146 14.4982 3.81067C14.4982 4.66988 13.7521 5.32978 12.8044 5.32978H12.4598C13.2638 6.27573 13.7801 7.50775 13.7801 9.02582C13.7801 10.8021 12.9471 12.5215 11.4831 13.61H11.4841ZM3.35862 22.0224V18.9284C3.32965 18.4988 3.32965 18.0692 3.35862 17.6386C3.4445 16.8361 4.04773 16.2919 4.9086 16.2919C5.10933 16.2919 5.74153 16.3208 5.94226 16.3776C6.94695 16.6926 7.00489 17.6675 7.0618 18.5267C7.09077 18.8417 7.11871 20.0158 7.17665 20.273C7.2915 20.3019 7.69296 20.3876 9.10015 20.3876C10.3345 20.3876 18.8315 20.3308 18.8315 20.3308C18.8604 20.3597 20.0089 20.6169 20.1238 21.4193C20.2097 22.136 20.0948 22.7091 19.7503 23.1098C19.2909 23.654 18.6018 23.683 18.5728 23.683H5.97123C4.42125 23.683 3.35862 22.8806 3.35862 22.0213V22.0224ZM10.1918 9.02478C10.1918 5.6148 4.50713 5.44337 4.50713 9.02478C4.50713 11.0881 6.34475 11.8905 7.9237 11.5756C9.12912 11.3463 10.1918 10.4871 10.1918 9.02478ZM19.3198 9.93046V13.6843C19.2909 14.085 19.234 14.5435 18.9753 14.9742C18.8604 15.2034 18.6887 15.4038 18.459 15.5184C18.1724 15.7188 17.8278 15.8334 17.4543 15.8334C17.1666 15.8334 16.8511 15.7477 16.6213 15.6041C15.7884 15.1456 15.6736 14.1139 15.6736 14.085V3.1673C15.6736 2.99484 15.7025 2.13563 15.9322 1.67711C16.133 1.3043 16.5924 1.04716 17.1956 0.989329C17.8557 0.903614 18.4879 1.07504 18.8325 1.41893C19.0622 1.70499 19.1481 1.99208 19.234 2.30706C19.3488 2.67986 19.3488 3.13838 19.3198 3.53907V6.71979C19.6644 6.74871 21.3292 6.80551 21.6448 6.89225C22.4488 7.0358 22.7354 7.32186 22.8502 7.75146C22.9361 8.15215 22.9651 8.81205 22.7354 9.18382C22.247 9.9284 21.2133 9.9284 20.0079 9.9284H19.3188L19.3198 9.93046Z" fill="#2D70D6"/>
<path d="M38.47 3.94079C38.9583 5.05817 39.1301 6.3191 39.0153 7.80929C38.9294 9.72909 38.412 11.1614 37.4073 12.1074C35.7135 13.769 32.4698 13.7979 30.2876 13.454C29.9141 13.3962 29.5416 13.2816 29.1101 13.167C28.7086 12.9955 28.2772 12.7663 27.8178 12.4792C26.899 11.8771 26.2678 11.1036 25.9512 10.1298C25.6066 9.18382 25.4338 8.20998 25.4338 7.20723C25.4338 6.20447 25.6346 5.20172 26.0081 4.31359C26.3237 3.42547 26.9559 2.65198 27.7878 2.04991C28.4769 1.47676 29.195 1.10396 30.0558 0.846813C30.8598 0.617553 31.7496 0.531839 32.5825 0.617553C32.9561 0.646469 33.3006 0.674352 33.5872 0.674352C33.8459 0.703268 34.1036 0.760066 34.3622 0.817898C34.5919 0.875729 34.8785 0.961443 35.1082 1.04716C35.3669 1.16179 35.6535 1.27642 36.0271 1.41996C37.1756 2.04991 38.0075 2.88124 38.4669 3.94182L38.47 3.94079ZM29.5985 23.9133C29.1681 23.8565 28.8235 23.7129 28.4789 23.4258C28.2782 23.2534 28.1054 23.0819 27.9616 22.7959C27.8757 22.5666 27.7609 22.3084 27.7029 22.0513C27.646 21.7931 27.617 21.4781 27.617 21.2778C27.5881 21.0775 27.5881 20.9628 27.5881 20.9628V17.7821C27.5881 16.9508 27.4443 15.6909 28.2482 15.1177C28.9663 14.5735 30.6311 14.4878 30.8608 15.5762C30.9757 15.8912 30.9467 16.1494 30.9757 16.4933C31.0046 16.7793 31.0046 17.0664 31.0046 17.0664C31.0046 17.0664 31.2343 17.0664 31.493 17.0954H41.454V16.1215C41.483 15.4916 41.8276 14.9184 42.4587 14.7749C42.975 14.6602 43.6641 14.6313 44.1235 14.9184C45.4159 15.6062 44.8985 17.7842 44.9565 19.2733C45.0134 20.7057 45.0713 24.001 42.8612 24.001H30.8049C30.8049 24.001 30.03 23.9721 29.5995 23.9153L29.5985 23.9133ZM35.5418 6.92117C35.5128 6.57728 35.4269 6.23339 35.3121 5.91841C35.1683 5.57452 35.0255 5.28847 34.7378 5.05921C34.5081 4.80103 34.1346 4.60069 33.7331 4.42926C33.3596 4.28571 32.8433 4.2 32.298 4.2C31.7817 4.2 31.2643 4.28571 30.8339 4.48606C30.4035 4.65852 29.973 4.97349 29.6285 5.31738C29.2839 5.69019 29.0832 6.17659 28.9973 6.74974C28.9404 7.20826 28.9404 7.60895 29.0263 8.01067C29.0553 8.41136 29.1991 8.81308 29.4278 9.12805C29.6285 9.47194 29.9441 9.73012 30.3466 9.98726C30.7201 10.2165 31.2074 10.3601 31.8107 10.4458C32.2121 10.4747 32.6436 10.4747 33.0451 10.4169C33.4755 10.3601 33.82 10.2454 34.1356 10.0441C34.5092 9.90051 34.8247 9.64337 35.0834 9.35628C35.3131 9.01239 35.5138 8.6117 35.6287 8.15318C35.6287 7.72358 35.5997 7.29397 35.5428 6.92117H35.5418ZM41.5409 20.3318C41.512 19.7298 41.0246 19.7876 40.4783 19.7876H35.1372C33.9028 19.7587 34.7088 19.7876 33.4745 19.7876C32.9002 19.7876 31.0916 19.6441 31.0057 20.1315C30.8908 20.9907 31.1774 21.2778 31.9814 21.2489C32.8143 21.2489 33.6183 21.3346 34.4791 21.3057C36.5744 21.2489 37.2056 21.3057 39.2729 21.3057H40.8229C41.4261 21.3057 41.5409 21.1621 41.5409 20.3318ZM44.8706 12.4224C44.8137 12.5948 44.7268 12.7373 44.6409 12.9377C44.526 13.138 44.3822 13.2816 44.1525 13.3962C43.8938 13.5687 43.6072 13.6544 43.3775 13.6544C43.033 13.6544 42.7464 13.5398 42.4018 13.2816C42.1721 13.167 42.0003 12.9377 41.8855 12.7084C41.7417 12.4224 41.6558 12.1064 41.6268 11.7346C41.5699 11.4196 41.5979 4.8 41.5979 3.94079V2.90912C41.5979 2.67986 41.6268 2.4506 41.6837 2.27917C41.7406 1.99311 41.9134 1.67711 42.2 1.33322C42.3439 1.16075 42.5736 1.01824 42.8602 0.932528C43.1468 0.846813 43.4055 0.817898 43.75 0.846813C45.0703 1.07607 45.0424 2.07883 45.0424 3.19621V11.7346C44.9854 12.0207 44.9565 12.222 44.8696 12.4224H44.8706Z" fill="#2D70D6"/>
<path d="M56.2181 10.1019H62.12C62.12 10.1019 67.0172 10.0451 69.6009 10.1019H69.7447C70.5197 10.1308 71.2947 10.073 72.0417 10.3601C72.587 10.5604 72.9316 11.0479 72.9316 11.621C72.9316 12.0795 72.7308 12.5091 72.3573 12.8241C71.7541 13.3683 70.7784 13.3394 70.0034 13.2826H54.3526C54.2946 13.2826 52.9454 13.3115 52.4001 12.7095C52.1704 12.4802 52.0555 12.1074 52.0555 11.7356C52.0555 11.335 52.1994 10.9911 52.4291 10.7618C52.9174 10.2744 53.4627 10.2465 54.037 10.1887C54.1518 10.1887 54.2667 10.1597 54.3815 10.1597C54.9558 10.1029 56.2192 10.1029 56.2192 10.1029L56.2181 10.1019ZM70.9274 22.3374C71.1571 23.0251 70.8984 23.5126 70.1813 23.7986C69.7219 23.9701 69.2336 23.999 68.8321 23.999H57.9657C57.1907 23.999 56.3578 23.9701 55.5259 23.9411C54.722 23.9122 54.1477 23.3112 54.0618 22.451L53.9759 20.4455C53.947 20.0448 53.919 19.357 54.2636 18.9842C54.7799 18.411 55.8136 18.3253 56.6465 18.3253C57.7371 18.3253 58.9001 18.3542 67.6567 18.3542V17.3226H56.0153C55.6418 17.3226 55.3262 17.3226 55.0396 17.2658C54.695 17.18 54.4084 17.18 54.2356 16.8651C53.977 16.4644 53.8911 16.0916 54.0349 15.6331C54.2356 15.031 55.0975 14.9453 55.528 14.8885C55.8146 14.8317 56.1022 14.8028 56.4178 14.8028C58.1406 14.8028 57.6667 14.8317 67.9443 14.8317C69.8678 14.8317 70.9584 15.4048 70.9584 16.7226V18.757C70.9584 19.2723 70.7287 19.8454 70.1255 20.1893C69.6371 20.4754 69.1208 20.4475 68.6324 20.4475H57.5073V21.4792H69.6371C70.2403 21.537 70.7566 21.7374 70.9294 22.3384L70.9274 22.3374ZM54.2905 2.82342C53.8311 1.93529 54.4053 1.10397 55.2662 0.81791C56.156 0.502936 57.3046 0.58865 58.2523 0.58865C61.4102 0.58865 64.9272 0.617566 68.085 0.617566C68.86 0.617566 69.9227 0.617566 70.4969 1.21963C71.0422 1.8217 71.0712 2.968 70.3821 3.48331C70.2962 3.56903 70.1813 3.62686 70.0375 3.68366C69.3194 3.99863 68.4006 3.74046 67.6256 3.91292C67.6546 3.96972 67.7115 5.71808 67.7115 5.71808C67.7115 5.66128 69.4053 5.83271 69.5491 5.86163C70.4969 6.00517 71.0132 6.1198 70.8984 7.2661C70.7546 9.15698 69.5491 8.84201 68.0271 8.87092C67.0514 8.89984 66.0467 8.87092 65.0699 8.87092C63.5769 8.87092 61.6968 8.87092 60.2038 8.89984C59.1701 8.89984 57.8788 8.89984 56.8451 8.87092C55.8694 8.87092 54.2905 8.58383 54.1467 7.32393C53.9459 5.54769 56.3578 5.89158 57.4773 5.77695L57.4194 3.91395C56.2709 3.85715 54.8927 4.02858 54.2905 2.82548V2.82342ZM64.1232 3.91292H61.0946C61.0088 3.99863 60.9798 4.08538 60.9508 4.22789V5.71808C61.4961 5.71808 63.6348 5.747 64.1811 5.71808L64.1232 3.91292Z" fill="#2D70D6"/>
<path d="M79.1449 20.2141C79.059 20.2141 78.8572 20.2431 78.5137 20.2431C77.6808 20.2431 76.2167 20.0706 75.7573 18.8386C75.3268 17.6923 75.4417 15.1074 75.4707 14.8782L75.4417 11.6985C75.4417 11.526 75.4417 10.6668 75.6714 10.2083C75.8432 9.83549 76.3605 9.40589 76.3605 9.40589L80.9535 9.37697H81.0394C81.2691 9.37697 81.7854 9.32017 81.8144 8.88953C81.8723 8.54564 81.8434 8.20175 81.8144 7.85787C81.8144 7.68644 81.7575 7.56768 81.7854 6.8231C81.7854 5.79143 81.6706 5.53325 80.9245 5.53325L77.1634 5.56217C76.9048 5.56217 76.1008 5.50537 75.6993 5.04685C75.4696 4.70296 75.3258 4.38799 75.3258 3.98626C75.3548 3.757 75.4407 3.21277 75.6993 2.98351C75.958 2.72534 76.2156 2.49608 76.5602 2.41036C76.8478 2.35253 77.0486 2.35253 77.2783 2.32465H77.5939C77.7946 2.29573 78.1102 2.26785 78.5127 2.26785C79.1728 2.26785 79.8329 2.29676 79.8329 2.29676L82.5604 2.26785H82.9908C83.622 2.26785 84.5129 2.44031 85.0002 3.35632C85.3158 3.92947 85.2868 5.07577 85.2868 5.30503L85.2578 9.062C85.3158 9.4916 85.6314 11.8131 84.3101 12.4431C83.9086 12.6155 83.2474 12.6434 82.846 12.6723H82.3866C82.1279 12.7012 81.8413 12.7012 81.5257 12.7012C81.0094 12.6723 79.1428 12.787 79.1428 12.787L79.0859 14.4486C79.0859 14.6489 79.1149 15.7715 79.1428 15.915C79.1428 16.7174 79.2287 16.7174 79.4015 16.7174L83.7648 16.6596C84.4249 16.6596 85.2289 16.6307 85.7742 17.2895C85.8311 17.3474 85.9459 17.4899 85.9749 18.4648C86.0039 19.3818 85.6303 19.4964 85.0561 19.8403C84.7405 20.0128 83.7637 20.1274 83.0467 20.1553L79.1418 20.2121L79.1449 20.2141ZM95.8469 20.3319C95.8759 21.3635 95.8759 22.5666 95.014 23.1398C94.7263 23.3112 94.4397 23.4259 94.1531 23.4259C92.8329 23.4259 92.6601 21.3625 92.6601 20.303V13.5408H90.7935V20.4754C90.8514 21.3346 90.7366 22.3952 90.363 22.9394C90.1333 23.2544 89.7888 23.4269 89.3583 23.4269C88.9279 23.4269 88.5834 23.1976 88.2678 22.9116C87.6076 22.2816 87.6076 21.2499 87.6076 20.3897V3.7126C87.5787 2.65201 87.7225 1.04823 88.9859 0.73222C89.3873 0.646505 89.7608 0.73222 90.0485 1.04719C90.9094 1.9064 90.7945 4.25683 90.7945 5.94737V10.074H92.6611V3.97077C92.6611 2.88231 92.4604 0.904681 94.0683 0.733252C94.4697 0.704337 94.8143 0.818967 95.073 1.10606C95.9628 2.0231 95.9059 4.40141 95.848 5.66234V20.3329L95.8469 20.3319Z" fill="#2D70D6"/>
<path d="M103.224 14.8173C103.224 15.3615 103.166 15.8779 103.195 16.3932C103.195 16.6514 103.195 16.9663 103.396 17.1378C103.626 17.3381 103.999 17.3092 104.286 17.3092C104.716 17.3092 105.176 17.3381 105.606 17.3381C106.582 17.3381 109.08 17.3092 110.027 17.4238C110.688 17.5095 111.435 17.5963 112.009 17.9681C112.296 18.1684 112.439 18.5123 112.468 18.8562C112.497 19.0287 112.497 19.2001 112.497 19.4004C112.468 19.83 112.324 20.2317 112.038 20.5467C111.751 20.8617 111.378 21.0342 110.975 21.1199C110.43 21.2056 109.942 21.2923 109.396 21.2923C109.052 21.2923 107.444 21.2634 107.128 21.2634H103.912C103.166 21.2634 102.448 21.1488 101.701 21.1199C101.127 21.091 100.467 20.9195 100.036 20.5178C99.635 20.1171 99.4332 19.6008 99.3184 19.0565C99.0887 17.8245 99.2035 16.5068 99.2035 15.2459V10.165C99.2035 9.5061 99.2325 8.81832 99.2035 8.13054C99.2035 8.01591 99.1466 5.6376 99.2035 4.37667C99.2615 3.60318 99.4622 2.65722 100.438 2.25653C100.868 2.11299 101.328 1.99836 101.787 2.11299C102.247 2.22762 102.677 2.51368 102.878 3.00111C103.107 3.54535 103.193 4.14741 103.193 4.77736C103.193 5.20696 103.193 5.60868 103.222 6.03829V14.8163L103.224 14.8173ZM114.122 13.3116C113.605 13.2259 110.131 13.2548 109.615 13.197C108.294 13.1113 107.117 12.3378 107.519 10.8765C107.605 10.5904 107.893 10.1887 108.123 9.98838C108.352 9.81695 108.611 9.70232 108.927 9.64449C109.53 9.55877 113.406 9.58769 114.037 9.52986H114.123C114.18 7.83932 114.066 6.29233 114.123 4.6018V4.20111C114.123 3.19836 114.123 1.70817 114.812 1.02039C115.071 0.791129 115.501 0.647583 115.875 0.647583H115.931C117.798 0.733297 117.999 2.68201 117.999 3.8851V21.1922C117.999 21.25 118.056 22.7113 117.396 23.3123C117.137 23.5705 116.391 23.7419 115.988 23.7419C115.558 23.7419 115.155 23.5705 114.898 23.2834C114.409 22.7681 114.352 22.166 114.295 21.5361C114.295 21.4214 114.266 21.3068 114.266 21.1632C114.208 20.5612 114.208 19.8455 114.18 19.1577C114.151 18.7281 114.151 18.3264 114.151 17.9257V17.2669L114.122 13.3126V13.3116Z" fill="#2D70D6"/>
</svg>
